<svg xmlns="http://www.w3.org/2000/svg" xmlns:xlink="http://www.w3.org/1999/xlink" viewBox="0 0 74 74"><defs><style>.cls-1{fill:#ecdf97;}.cls-2{fill:url(#linear-gradient);}.cls-3{fill:url(#linear-gradient-2);}.cls-4{fill:url(#linear-gradient-3);}</style><linearGradient id="linear-gradient" x1="4.97" y1="31.79" x2="54.97" y2="31.79" gradientUnits="userSpaceOnUse"><stop offset="0.03" stop-color="#fd4ec1"/><stop offset="0.24" stop-color="#fb72b9"/><stop offset="0.73" stop-color="#f7cba4"/><stop offset="0.82" stop-color="#f6dda0"/></linearGradient><linearGradient id="linear-gradient-2" x1="0" y1="37" x2="58.72" y2="37" xlink:href="#linear-gradient"/><linearGradient id="linear-gradient-3" x1="9" y1="20.51" x2="11.36" y2="20.51" xlink:href="#linear-gradient"/></defs><g id="Layer_2" data-name="Layer 2"><g id="Layer_1-2" data-name="Layer 1"><rect class="cls-1" x="64.55" y="6.63" width="3.32" height="61.03"/><path class="cls-1" d="M74,7.48v59A7.67,7.67,0,0,1,66.21,74a7.79,7.79,0,0,1-7.49-5.39l-.31-20.4V31.5h3.32v35a4.48,4.48,0,0,0,9,0v-59a4.48,4.48,0,0,0-9,0v18.6H58.41V7.48A7.8,7.8,0,0,1,74,7.48Z"/><polyline class="cls-2" points="54.97 57.79 4.97 8.47 7.13 5.79 54.97 52.94"/><polygon class="cls-3" points="58.72 68.61 14.69 24.96 14.69 41.84 11.37 41.84 11.37 21.68 9 19.33 9 67.66 5.68 67.66 5.68 16.18 3.32 13.89 3.32 70.81 11.37 70.81 11.37 47.64 14.69 47.64 14.69 74 0 74 0 6.13 1.68 7.76 14.69 20.37 58.41 63.73 58.41 52.78 7.45 2.71 9.34 0 58.41 48.2 58.72 68.61"/><polygon class="cls-4" points="11.37 21.68 9 19.4 9 19.33 11.37 21.68"/></g></g></svg>