<svg xmlns="http://www.w3.org/2000/svg" xmlns:xlink="http://www.w3.org/1999/xlink" viewBox="0 0 70.24 73.15"><defs><style>.cls-1{fill:#ecdf97;}.cls-2{fill:url(#linear-gradient);}.cls-3{fill:url(#linear-gradient-2);}.cls-4{fill:url(#linear-gradient-3);}</style><linearGradient id="linear-gradient" x1="4.82" y1="30.47" x2="50.95" y2="30.47" gradientUnits="userSpaceOnUse"><stop offset="0.03" stop-color="#fd4ec1"/><stop offset="0.24" stop-color="#fb72b9"/><stop offset="0.73" stop-color="#f7cba4"/><stop offset="0.82" stop-color="#f6dda0"/></linearGradient><linearGradient id="linear-gradient-2" x1="0" y1="36.58" x2="55.74" y2="36.58" xlink:href="#linear-gradient"/><linearGradient id="linear-gradient-3" x1="8.55" y1="20.27" x2="10.79" y2="20.27" xlink:href="#linear-gradient"/></defs><g id="Layer_2" data-name="Layer 2"><g id="Layer_1-2" data-name="Layer 1"><rect class="cls-1" x="61.27" y="6.55" width="3.15" height="60.33"/><path class="cls-1" d="M70.24,7.39V65.76a7.4,7.4,0,0,1-14.5,2.07l-.29-20.18V31.14H58.6V65.76a4.25,4.25,0,0,0,8.49,0V7.39a4.25,4.25,0,0,0-8.49,0V25.78H55.45V7.39a7.4,7.4,0,0,1,14.79,0Z"/><polygon class="cls-2" points="50.95 52.07 49.28 54.89 4.82 8.58 6.74 6.06 50.95 52.07"/><polygon class="cls-3" points="55.74 67.83 13.94 24.68 13.94 41.37 10.79 41.37 10.79 21.44 8.55 19.11 8.55 66.88 5.39 66.88 5.39 15.99 3.15 13.73 3.15 70 10.79 70 10.79 47.09 13.94 47.09 13.94 73.15 0 73.15 0 6.06 1.59 7.67 13.94 20.14 55.45 62.99 55.45 52.17 7.08 2.68 8.86 0 55.45 47.65 55.74 67.83"/><polygon class="cls-4" points="10.79 21.44 8.55 19.18 8.55 19.11 10.79 21.44"/></g></g></svg>