<svg xmlns="http://www.w3.org/2000/svg" xmlns:xlink="http://www.w3.org/1999/xlink" viewBox="0 0 383.06 74"><defs><style>.cls-1{fill:#ecdf97;}.cls-2{fill:url(#linear-gradient);}.cls-3{fill:url(#linear-gradient-2);}.cls-4{fill:url(#linear-gradient-3);}.cls-5{fill:url(#linear-gradient-4);}.cls-6{fill:url(#linear-gradient-5);}.cls-7{fill:url(#linear-gradient-6);}.cls-8{fill:url(#linear-gradient-7);}.cls-9{fill:url(#linear-gradient-8);}.cls-10{fill:url(#linear-gradient-9);}.cls-11{fill:url(#linear-gradient-10);}.cls-12{fill:url(#linear-gradient-11);}.cls-13{fill:url(#linear-gradient-12);}.cls-14{fill:url(#linear-gradient-13);}</style><linearGradient id="linear-gradient" x1="4.97" y1="31.79" x2="54.97" y2="31.79" gradientUnits="userSpaceOnUse"><stop offset="0.03" stop-color="#fd4ec1"/><stop offset="0.24" stop-color="#fb72b9"/><stop offset="0.73" stop-color="#f7cba4"/><stop offset="0.82" stop-color="#f6dda0"/></linearGradient><linearGradient id="linear-gradient-2" x1="0" y1="37" x2="58.72" y2="37" xlink:href="#linear-gradient"/><linearGradient id="linear-gradient-3" x1="9" y1="20.51" x2="11.36" y2="20.51" xlink:href="#linear-gradient"/><linearGradient id="linear-gradient-4" x1="136.85" y1="37.08" x2="142.55" y2="37.08" gradientUnits="userSpaceOnUse"><stop offset="0.03" stop-color="#fd4ec1"/><stop offset="0.86" stop-color="#fe50c1"/><stop offset="1" stop-color="#ff52c2"/></linearGradient><linearGradient id="linear-gradient-5" x1="137.24" y1="37.08" x2="142.15" y2="37.08" xlink:href="#linear-gradient-4"/><linearGradient id="linear-gradient-6" x1="186.09" y1="36.99" x2="210.34" y2="36.99" xlink:href="#linear-gradient-4"/><linearGradient id="linear-gradient-7" x1="220.6" y1="37.32" x2="242.99" y2="37.32" xlink:href="#linear-gradient-4"/><linearGradient id="linear-gradient-8" x1="285.64" y1="37.32" x2="306.31" y2="37.32" gradientUnits="userSpaceOnUse"><stop offset="0.03" stop-color="#ffb7ae"/><stop offset="0.38" stop-color="#ffb9ae"/><stop offset="0.5" stop-color="#ffc0ad"/><stop offset="0.59" stop-color="#ffcbab"/></linearGradient><linearGradient id="linear-gradient-9" x1="103.06" y1="37.08" x2="127.78" y2="37.08" xlink:href="#linear-gradient-4"/><linearGradient id="linear-gradient-10" x1="151.99" y1="37.07" x2="176.91" y2="37.07" xlink:href="#linear-gradient-4"/><linearGradient id="linear-gradient-11" x1="348.31" y1="36.96" x2="383.06" y2="36.96" gradientUnits="userSpaceOnUse"><stop offset="0.03" stop-color="#ffe1a6"/><stop offset="0.39" stop-color="#ffe3a6"/><stop offset="0.52" stop-color="#ffeaa4"/><stop offset="0.56" stop-color="#ffeea3"/></linearGradient><linearGradient id="linear-gradient-12" x1="315.75" y1="37.21" x2="340.05" y2="37.21" gradientUnits="userSpaceOnUse"><stop offset="0.03" stop-color="#ffcaab"/><stop offset="0.13" stop-color="#ffccab"/><stop offset="0.17" stop-color="#ffd3a9"/><stop offset="0.18" stop-color="#ffd6a8"/><stop offset="0.2" stop-color="#ffd6a8"/></linearGradient><linearGradient id="linear-gradient-13" x1="253.07" y1="37.04" x2="275.26" y2="37.04" gradientUnits="userSpaceOnUse"><stop offset="0.03" stop-color="#ffa3b2"/><stop offset="0.65" stop-color="#ffa2b2"/></linearGradient></defs><g id="Layer_2" data-name="Layer 2"><g id="Layer_1-2" data-name="Layer 1"><rect class="cls-1" x="64.55" y="6.63" width="3.32" height="61.03"/><path class="cls-1" d="M74,7.48v59A7.67,7.67,0,0,1,66.21,74a7.79,7.79,0,0,1-7.49-5.39l-.31-20.4V31.5h3.32v35a4.48,4.48,0,0,0,9,0v-59a4.48,4.48,0,0,0-9,0v18.6H58.41V7.48A7.8,7.8,0,0,1,74,7.48Z"/><polyline class="cls-2" points="54.97 57.79 4.97 8.47 7.13 5.79 54.97 52.94"/><polygon class="cls-3" points="58.72 68.61 14.69 24.96 14.69 41.84 11.37 41.84 11.37 21.68 9 19.33 9 67.66 5.68 67.66 5.68 16.18 3.32 13.89 3.32 70.81 11.37 70.81 11.37 47.64 14.69 47.64 14.69 74 0 74 0 6.13 1.68 7.76 14.69 20.37 58.41 63.73 58.41 52.78 7.45 2.71 9.34 0 58.41 48.2 58.72 68.61"/><polygon class="cls-4" points="11.37 21.68 9 19.4 9 19.33 11.37 21.68"/><path class="cls-5" d="M142.55,61.56h-5.7v-49h5.7Zm-5.26-.44h4.82V13h-4.82Z"/><rect class="cls-6" x="137.24" y="12.81" width="4.91" height="48.53"/><polygon class="cls-7" points="210.34 12.72 210.34 61.25 205.43 61.25 205.43 45.18 191 45.18 191 61.25 186.09 61.25 186.09 12.72 191 12.72 191 40.29 205.43 40.29 205.43 12.72 210.34 12.72"/><polygon class="cls-8" points="242.99 12.88 242.99 17.77 234.25 17.77 234.25 61.76 229.33 61.76 229.33 17.77 220.6 17.77 220.6 12.88 242.99 12.88"/><polygon class="cls-9" points="290.55 17.76 290.55 41.01 301.05 41.01 301.05 45.9 290.55 45.9 290.55 56.87 306.31 56.87 306.31 61.77 285.64 61.77 285.64 13.23 285.66 13.23 285.66 12.87 306.31 12.87 306.31 17.76 290.55 17.76"/><polygon class="cls-10" points="127.78 12.81 127.78 61.35 122.69 61.35 122.69 26.39 108.14 19.17 108.14 61.35 103.06 61.35 103.06 12.81 108.14 12.81 108.14 12.99 108.23 12.81 122.69 20.03 122.69 12.81 127.78 12.81"/><path class="cls-11" d="M171,25.93V24.49a6.57,6.57,0,0,0-13.13,0V49.65a6.57,6.57,0,0,0,13.13,0V45H163.4V39.27h13.51V49.65a12.46,12.46,0,0,1-24.92,0V24.49a12.46,12.46,0,0,1,24.92,0v1.44Z"/><polygon class="cls-12" points="348.31 12.73 360.84 61.2 369.81 61.2 383.06 12.73 377.42 12.73 365.21 56.38 354.22 12.73 348.31 12.73"/><path class="cls-13" d="M331.72,44.24a12.68,12.68,0,0,0,7.06-11.37V25.43A12.81,12.81,0,0,0,326,12.66H315.75V61.77h4.91V45.62H326a5.7,5.7,0,0,0,.72,0l6.78,15.62h6.58ZM326,40.73h-5.31V17.55H326a7.89,7.89,0,0,1,7.9,7.88v7.44A7.89,7.89,0,0,1,326,40.73Z"/><path class="cls-14" d="M258,50.86V54.1a2,2,0,0,0,2,2H268a2.69,2.69,0,0,0,2.65-2.87V47.51a3.87,3.87,0,0,0-3.83-4h-8.64a5.13,5.13,0,0,1-5.14-5.12v-18a7.47,7.47,0,0,1,7.49-7.46h7.2a7.48,7.48,0,0,1,7.5,7.46v8.24H270V20.05a2,2,0,0,0-2-2h-8a2,2,0,0,0-2,2V34.9a3,3,0,0,0,3,3h8.59a5.56,5.56,0,0,1,5.57,5.54V54.85a6.37,6.37,0,0,1-6.38,6.35H259.5a6.42,6.42,0,0,1-6.43-6.41v-4Z"/></g></g></svg>