<svg xmlns="http://www.w3.org/2000/svg" xmlns:xlink="http://www.w3.org/1999/xlink" viewBox="0 0 280 50"><defs><style>.cls-1{fill:url(#linear-gradient);}.cls-2{fill:url(#linear-gradient-2);}.cls-3{fill:url(#linear-gradient-3);}.cls-4{fill:url(#linear-gradient-4);}.cls-5{fill:url(#linear-gradient-5);}.cls-6{fill:url(#linear-gradient-6);}.cls-7{fill:url(#linear-gradient-7);}.cls-8{fill:url(#linear-gradient-8);}.cls-9{fill:url(#linear-gradient-9);}.cls-10{fill:url(#linear-gradient-10);}</style><linearGradient id="linear-gradient" x1="33.79" y1="25" x2="39.49" y2="25" gradientUnits="userSpaceOnUse"><stop offset="0.03" stop-color="#fd4ec1"/><stop offset="0.86" stop-color="#fe50c1"/><stop offset="1" stop-color="#ff52c2"/></linearGradient><linearGradient id="linear-gradient-2" x1="34.19" y1="25" x2="39.1" y2="25" xlink:href="#linear-gradient"/><linearGradient id="linear-gradient-3" x1="83.03" y1="24.91" x2="107.28" y2="24.91" xlink:href="#linear-gradient"/><linearGradient id="linear-gradient-4" x1="117.54" y1="25.24" x2="139.93" y2="25.24" xlink:href="#linear-gradient"/><linearGradient id="linear-gradient-5" x1="182.58" y1="25.24" x2="203.26" y2="25.24" gradientUnits="userSpaceOnUse"><stop offset="0.03" stop-color="#ffb7ae"/><stop offset="0.38" stop-color="#ffb9ae"/><stop offset="0.5" stop-color="#ffc0ad"/><stop offset="0.59" stop-color="#ffcbab"/></linearGradient><linearGradient id="linear-gradient-6" x1="0" y1="25.01" x2="24.72" y2="25.01" xlink:href="#linear-gradient"/><linearGradient id="linear-gradient-7" x1="48.93" y1="25" x2="73.85" y2="25" xlink:href="#linear-gradient"/><linearGradient id="linear-gradient-8" x1="245.25" y1="24.89" x2="280" y2="24.89" gradientUnits="userSpaceOnUse"><stop offset="0.03" stop-color="#ffe1a6"/><stop offset="0.39" stop-color="#ffe3a6"/><stop offset="0.52" stop-color="#ffeaa4"/><stop offset="0.56" stop-color="#ffeea3"/></linearGradient><linearGradient id="linear-gradient-9" x1="212.69" y1="25.14" x2="236.99" y2="25.14" gradientUnits="userSpaceOnUse"><stop offset="0.03" stop-color="#ffcaab"/><stop offset="0.13" stop-color="#ffccab"/><stop offset="0.17" stop-color="#ffd3a9"/><stop offset="0.18" stop-color="#ffd6a8"/><stop offset="0.2" stop-color="#ffd6a8"/></linearGradient><linearGradient id="linear-gradient-10" x1="150.01" y1="24.97" x2="172.2" y2="24.97" gradientUnits="userSpaceOnUse"><stop offset="0.03" stop-color="#ffa3b2"/><stop offset="0.65" stop-color="#ffa2b2"/></linearGradient></defs><g id="Layer_2" data-name="Layer 2"><g id="Layer_1-2" data-name="Layer 1"><path class="cls-1" d="M39.49,49.48h-5.7V.52h5.7Zm-5.26-.43h4.82V1H34.23Z"/><rect class="cls-2" x="34.19" y="0.74" width="4.91" height="48.53"/><polygon class="cls-3" points="107.28 0.65 107.28 49.18 102.37 49.18 102.37 33.11 87.94 33.11 87.94 49.18 83.03 49.18 83.03 0.65 87.94 0.65 87.94 28.21 102.37 28.21 102.37 0.65 107.28 0.65"/><polygon class="cls-4" points="139.93 0.8 139.93 5.7 131.2 5.7 131.2 49.69 126.27 49.69 126.27 5.7 117.54 5.7 117.54 0.8 139.93 0.8"/><polygon class="cls-5" points="187.49 5.68 187.49 28.94 198 28.94 198 33.83 187.49 33.83 187.49 44.8 203.26 44.8 203.26 49.69 182.59 49.69 182.59 1.16 182.6 1.16 182.6 0.79 203.26 0.79 203.26 5.68 187.49 5.68"/><polygon class="cls-6" points="24.72 0.74 24.72 49.27 19.64 49.27 19.64 14.32 5.08 7.1 5.08 49.27 0 49.27 0 0.74 5.08 0.74 5.08 0.92 5.17 0.74 19.64 7.96 19.64 0.74 24.72 0.74"/><path class="cls-7" d="M68,13.85V12.42a6.57,6.57,0,0,0-13.14,0V37.58a6.57,6.57,0,0,0,13.14,0V32.91H60.35V27.2h13.5V37.58a12.46,12.46,0,0,1-24.92,0V12.42a12.46,12.46,0,0,1,24.92,0v1.43Z"/><polygon class="cls-8" points="245.25 0.65 257.79 49.13 266.76 49.13 280 0.65 274.37 0.65 262.15 44.31 251.16 0.65 245.25 0.65"/><path class="cls-9" d="M228.66,32.17a12.69,12.69,0,0,0,7.07-11.37V13.35A12.81,12.81,0,0,0,222.91.58H212.69V49.69h4.91V33.55h5.31a5.62,5.62,0,0,0,.72,0l6.78,15.61H237Zm-5.75-3.51H217.6V5.48h5.31a7.89,7.89,0,0,1,7.91,7.87V20.8A7.89,7.89,0,0,1,222.91,28.66Z"/><path class="cls-10" d="M154.89,38.78V42a2,2,0,0,0,2,2H165a2.69,2.69,0,0,0,2.65-2.88V35.44a3.86,3.86,0,0,0-3.83-4h-8.64A5.13,5.13,0,0,1,150,26.27v-18A7.48,7.48,0,0,1,157.5.8h7.21a7.49,7.49,0,0,1,7.49,7.47v8.24H167V8a2,2,0,0,0-2-2h-8a2,2,0,0,0-2,2V22.83a3,3,0,0,0,3,3h8.59a5.55,5.55,0,0,1,5.57,5.54V42.78a6.37,6.37,0,0,1-6.38,6.35h-9.38A6.42,6.42,0,0,1,150,42.72v-4Z"/></g></g></svg>